<svg id="Layer_1" data-name="Layer 1" xmlns="http://www.w3.org/2000/svg" viewBox="0 0 571.04734 601.96697"><defs><style>.cls-1{fill:#009245;}</style></defs><title>logo</title><path class="cls-1" d="M320.01048,89.18681s14.26945,51.78774,31.88589,70.53546c14.06706,14.97041,24.94942,61.75611,25.12222,84.0628.19166,24.7424.96624,109.185-57.00811,119.81365s-68.2479-113.53279-67.63674-137.20595C252.90683,205.74381,267.83357,144.26244,320.01048,89.18681Z" transform="translate(-20.47633 -89.18681)"/><path class="cls-1" d="M493.93352,344.27394s-49.2782-20.291-91.79272-4.8312-41.54828,57.97435-41.54828,57.97435,30.91965,24.156,85.029,0C485.51648,375.86934,493.93352,344.27394,493.93352,344.27394Z" transform="translate(-20.47633 -89.18681)"/><path class="cls-1" d="M591.52367,546.21791s-27.51449-37.44557-46.37948-68.603c-23.75957-39.24131-95.65767-39.61581-104.35382-40.582s-75.36665-4.83119-99.52263,0c-5.69273,30.91965,43.50149,92.59348,75.36665,109.185,40.51491,19.21885,53.14315,27.0547,109.185,15.45983S591.52367,546.21791,591.52367,546.21791Z" transform="translate(-20.47633 -89.18681)"/><path class="cls-1" d="M271.69852,691.15378S306,659.91209,322.9092,629.31448c14.3875-34.809,36.71708-136.23972-16.42607-152.66578-54.72055,1.93248-72.46793,128.5098-59.90682,144.93586C246.57631,626.41576,268.79981,668.93028,271.69852,691.15378Z" transform="translate(-20.47633 -89.18681)"/><path class="cls-1" d="M20.47633,539.45418c6.26449.089,60.9962,11.79857,94.82037,13.77659,41.08257,2.013,150.44114-61.44825,162.94134-114.17146,5.00518-40.9712-8.472-40.676-70.3113-42.60846-51.8928,5.79744-96.62391,7.72991-134.30723,57.97435S68.78834,479.54737,20.47633,539.45418Z" transform="translate(-20.47633 -89.18681)"/><path class="cls-1" d="M110.33659,322.05045s101.45511-48.2161,147.83459,48.843c-19.84151,9.8538-58.6668,3.72447-73.91729-6.6668C169.89011,354.43956,136.52588,355.10632,110.33659,322.05045Z" transform="translate(-20.47633 -89.18681)"/></svg>